Coordinates
version=1
nRows=9
nColumns=26
inDegrees=yes

Units are S.I. units (second, meters, Newtons, ...)
If the header above contains a line with 'inDegrees', this indicates whether rotational values are in degrees (yes) or radians (no).

endheader
time	pelvis_tilt	pelvis_list	pelvis_rotation	pelvis_tx	pelvis_ty	pelvis_tz	hip_flexion_r	hip_adduction_r	hip_rotation_r	knee_angle_r	knee_angle_r_beta	hip_flexion_l	hip_adduction_l	hip_rotation_l	knee_angle_l	knee_angle_l_beta	lumbar_extension	lumbar_bending	lumbar_rotation	ankle_angle_r	subtalar_angle_r	mtp_angle_r	ankle_angle_l	subtalar_angle_l	mtp_angle_l
      2.68666667	     -7.96263478	      4.91371506	     11.88009784	      0.00554983	      0.80390526	     -0.37461983	     35.55666499	     -8.21088984	      2.68418984	     14.33253841	      0.25014999	    -10.81622472	      5.03184809	     18.31092243	     22.93408825	      0.40027535	    -12.99164566	     -2.53909528	    -22.84075741	     -2.22790233	     -3.36757771	      0.00000000	     -1.62835930	     -3.67432402	      0.00000000
      2.69333333	     -7.48771880	      4.54250568	     11.68958889	      0.01771130	      0.80264319	     -0.37408817	     35.48825153	     -7.58679190	      2.00014488	     16.15190778	      0.28190397	    -11.15463787	      4.38407746	     17.20683570	     24.17360656	      0.42190903	    -13.26701973	     -1.85755307	    -22.60753064	     -2.65077755	     -3.65962515	      0.00000000	     -3.24952184	     -3.33381152	      0.00000000
      2.70000000	     -7.12984078	      3.96932228	     11.51222973	      0.02997003	      0.80142979	     -0.37328722	     35.44673567	     -6.75143761	      1.38607055	     17.85009267	      0.31154289	    -11.17738528	      3.51335893	     15.97927171	     25.60863680	      0.44695503	    -13.34957086	     -1.05860266	    -22.30474305	     -2.96199095	     -3.95234763	      0.00000000	     -5.03739896	     -2.85515415	      0.00000000
      2.70666667	     -6.98945026	      3.07811754	     11.38684950	      0.04216768	      0.80020725	     -0.37272101	     35.48156564	     -5.65236361	      0.91924786	     19.24254897	      0.33584584	    -10.65952790	      2.34169855	     14.45222784	     27.39908618	      0.47820427	    -13.07572352	      0.19496464	    -21.98452132	     -3.30005316	     -4.52166230	      0.00000000	     -6.64686211	     -2.06793280	      0.00000000
      2.71333333	     -6.74563889	      2.29120120	     11.22299837	      0.05428740	      0.79933749	     -0.37184557	     35.38720780	     -4.58308018	      0.51775354	     20.68739082	      0.36106308	    -10.17496549	      1.24038050	     12.98811758	     29.25710026	      0.51063273	    -13.00179113	      1.24130367	    -21.70238483	     -3.42083425	     -5.07838532	      0.00000000	     -8.46245108	     -1.50149153	      0.00000000
      2.72000000	     -6.55732120	      1.33939549	     11.12690802	      0.06621981	      0.79862351	     -0.37078578	     35.25479762	     -3.33603054	      0.19653723	     21.90940696	      0.38239129	     -9.38534140	     -0.09735509	     11.46820083	     31.40426618	      0.54810784	    -12.85608593	      2.42679634	    -21.49243991	     -3.83185258	     -6.28557448	      0.00000000	     -9.94384857	     -0.77028606	      0.00000000
      2.72666667	     -6.28285046	      0.52426541	     10.89596619	      0.07818706	      0.79828818	     -0.36977307	     34.99407494	     -2.16055433	     -0.03044986	     23.16822776	      0.40436186	     -8.72408329	     -1.25009940	     10.03918026	     33.41723975	      0.58324086	    -12.86068407	      3.48398109	    -21.12791973	     -3.34290336	     -6.65787267	      0.00000000	    -11.91612544	     -0.88289631	      0.00000000
      2.73333333	     -6.06552764	     -0.38975968	     10.76085292	      0.08994956	      0.79811470	     -0.36860782	     34.69553634	     -0.89575642	     -0.25031117	     24.23827215	      0.42303765	     -7.78797213	     -2.56824198	      8.65128292	     35.65734836	      0.62233813	    -12.80805167	      4.58329956	    -20.84020228	     -2.83873255	     -7.18211071	      0.00000000	    -13.60772312	     -1.26283570	      0.00000000
      2.74000000	     -5.91771335	     -1.36166255	     10.62087537	      0.10156867	      0.79814493	     -0.36756432	     34.37440068	      0.43904537	     -0.37742951	     25.10524770	      0.43816923	     -6.66224361	     -3.90949833	      7.44957348	     37.98896456	      0.66303251	    -12.67290821	      5.77593448	    -20.57505177	     -2.23714957	     -7.84993077	      0.00000000	    -15.11639478	     -1.96605948	      0.00000000
